<?xml version="1.0" encoding="UTF-8"?>
<svg width="227px" height="67px" viewBox="0 0 227 67" version="1.1" xmlns="http://www.w3.org/2000/svg" xmlns:xlink="http://www.w3.org/1999/xlink">
    <!-- Generator: Sketch 50.2 (55047) - http://www.bohemiancoding.com/sketch -->
    <title>Group</title>
    <desc>Created with Sketch.</desc>
    <defs></defs>
    <g id="Page-1" stroke="none" stroke-width="1" fill="none" fill-rule="evenodd">
        <g id="phylos-style-guide-2018" transform="translate(-572.000000, -38.000000)" fill="#458C62">
            <g id="Group-38" transform="translate(572.000000, 38.250000)">
                <g id="Group">
                    <path d="M11.8047,45.243 C11.8737,46.376 11.4817,47.4617 10.6937,48.3007 C9.9167,49.1287 8.8277,49.6017 7.7087,49.6017 L3.6167,49.6017 L3.6167,45.942 C3.6237,45.896 3.6257,45.85 3.6237,45.802 C3.5617,44.715 3.9637,43.608 4.7207,42.784 C5.4817,41.956 6.5067,41.483 7.5837,41.451 L11.8097,41.45 L11.8037,45.201 C11.8147,45.214 11.8037,45.228 11.8047,45.243 Z M8.1177,25.022 C8.0847,25.018 8.0527,25.019 8.0207,25.015 L7.6437,25.021 C5.4467,24.958 3.6577,23.118 3.6577,20.918 C3.6577,20.838 3.6617,20.76 3.6677,20.638 L3.6597,16.826 L7.3707,16.826 C7.4117,16.833 7.4557,16.835 7.4987,16.833 L7.7217,16.826 C9.9857,16.826 11.8257,18.667 11.8257,20.93 C11.8257,21.02 11.8247,21.11 11.8157,21.295 L11.8237,25.022 L8.1177,25.022 Z M18.1157,10.813 C17.2877,10.036 16.8137,8.949 16.8137,7.828 L16.8137,3.738 L20.4887,3.738 C20.5337,3.744 20.5807,3.745 20.6277,3.744 C21.7157,3.681 22.8227,4.084 23.6457,4.842 C24.4737,5.602 24.9467,6.626 24.9797,7.704 L24.9807,11.929 L21.2147,11.923 C21.2007,11.934 21.1877,11.924 21.1727,11.924 C20.0397,11.995 18.9537,11.601 18.1157,10.813 Z M20.5787,62.6877 L16.7667,62.6957 L16.7667,58.9977 C16.7727,58.9567 16.7757,58.9137 16.7727,58.8707 L16.7667,58.6467 C16.7667,56.3847 18.6077,54.5437 20.8707,54.5437 C20.9607,54.5437 21.0507,54.5467 21.2347,54.5547 L24.9617,54.5467 L24.9617,58.2377 C24.9577,58.2687 24.9587,58.3017 24.9557,58.3337 L24.9617,58.7097 C24.8997,60.9087 23.0577,62.6967 20.8587,62.6967 C20.7787,62.6967 20.6997,62.6947 20.5787,62.6877 Z M28.3997,28.489 L38.1177,28.489 L38.1177,37.984 L28.3997,37.984 L28.3997,28.489 Z M45.6357,3.742 C45.7147,3.742 45.7937,3.744 45.9147,3.75 L49.7387,3.743 L49.7387,7.494 C49.7317,7.536 49.7307,7.579 49.7317,7.622 L49.7387,7.846 C49.7387,9.823 48.3347,11.476 46.4717,11.864 C46.2057,11.918 45.9327,11.946 45.6517,11.946 C45.5607,11.946 45.4717,11.944 45.2887,11.936 L41.5487,11.944 L41.5487,8.198 C41.5517,8.166 41.5507,8.133 41.5537,8.101 L41.5497,7.725 C41.6027,5.805 43.0137,4.198 44.8367,3.823 C45.0957,3.77 45.3627,3.742 45.6357,3.742 Z M58.7247,16.836 L62.8277,16.836 L62.8277,20.552 C62.8197,20.597 62.8197,20.642 62.8197,20.692 C62.8847,21.778 62.4817,22.886 61.7247,23.709 C61.1547,24.329 60.4367,24.749 59.6607,24.936 C59.4057,24.995 59.1437,25.031 58.8777,25.037 L54.6387,25.039 C54.6387,25.039 54.6457,21.206 54.6447,21.192 C54.6007,20.052 54.9677,18.973 55.7557,18.135 C56.3367,17.516 57.0907,17.096 57.9027,16.922 C58.1717,16.866 58.4477,16.836 58.7247,16.836 Z M54.6507,45.546 C54.6507,45.455 54.6527,45.366 54.6607,45.182 L54.6527,41.441 L58.3997,41.441 C58.4307,41.445 58.4627,41.444 58.4957,41.447 L58.8717,41.442 C59.8327,41.47 60.7137,41.837 61.4037,42.425 C62.2807,43.182 62.8407,44.299 62.8407,45.529 C62.8407,45.609 62.8367,45.687 62.8307,45.808 L62.8387,49.6317 L59.0877,49.6317 C59.0457,49.6257 59.0027,49.6227 58.9587,49.6257 L58.7357,49.6317 C57.6137,49.6317 56.5957,49.1777 55.8527,48.4447 C55.1097,47.7017 54.6507,46.677 54.6507,45.546 Z M49.7457,58.6177 L49.7457,62.7217 L46.0307,62.7217 C45.9847,62.7137 45.9387,62.7117 45.8897,62.7137 C44.8067,62.7777 43.7057,62.3777 42.8817,61.6257 C42.0597,60.8657 41.5897,59.8457 41.5577,58.7717 L41.5557,54.5337 L45.3617,54.5397 C45.3747,54.5287 45.3897,54.5387 45.4037,54.5387 C46.5317,54.4687 47.6137,54.8577 48.4497,55.6387 C49.2737,56.4147 49.7457,57.5017 49.7457,58.6177 Z M66.2297,44.893 C66.0677,43.009 65.2177,41.334 63.9297,40.11 C62.6507,38.886 60.9357,38.11 59.0307,38.029 L41.5017,38.023 L41.5017,28.445 L59.0207,28.446 C59.0627,28.446 59.1047,28.442 59.1457,28.432 C59.6187,28.407 60.0807,28.336 60.5267,28.226 C63.6487,27.467 66.0027,24.761 66.2277,21.407 L66.2457,14.09 L66.2457,14.089 C66.2457,13.914 66.1757,13.747 66.0527,13.623 C65.9297,13.5 65.7627,13.431 65.5877,13.431 L58.7417,13.431 C58.2207,13.431 57.7107,13.484 57.2207,13.586 C53.8007,14.285 51.2187,17.315 51.2187,20.94 C51.2187,21.087 51.2227,25.039 51.2227,25.039 L41.5467,25.039 L41.5487,15.347 L45.1907,15.337 C45.3367,15.347 45.4857,15.352 45.6357,15.352 C46.1557,15.352 46.6647,15.298 47.1567,15.197 C50.5757,14.498 53.1567,11.466 53.1567,7.843 L53.1557,7.751 L53.1567,0.996 C53.1567,0.822 53.0877,0.655 52.9637,0.532 C52.8407,0.409 52.6727,0.338 52.4987,0.338 L45.1837,0.338 C45.1197,0.338 45.0577,0.348 44.9997,0.367 C44.7587,0.387 44.5227,0.419 44.2907,0.462 C40.8747,1.077 38.2877,3.983 38.1357,7.551 L38.1297,24.948 L38.1087,24.948 L38.1087,25.014 L38.0907,25.014 L38.0907,25.022 L28.4217,25.022 L28.4217,7.534 C28.4217,7.491 28.4177,7.449 28.4097,7.408 C28.1997,3.627 25.2167,0.599 21.3867,0.34 L14.0717,0.325 L14.0697,0.325 C13.9827,0.325 13.8967,0.341 13.8177,0.374 C13.7227,0.407 13.6357,0.457 13.5637,0.529 C13.4407,0.652 13.3707,0.82 13.3707,0.994 L13.3707,7.749 C13.3707,7.762 13.3717,7.772 13.3717,7.784 L13.3707,7.841 C13.3707,11.979 16.7377,15.346 20.8757,15.346 C21.0237,15.346 24.9807,15.342 24.9807,15.342 L24.9807,25.022 L15.2627,25.022 C15.2627,25.022 15.2677,21.068 15.2677,20.918 C15.2677,16.779 11.9017,13.412 7.7627,13.412 L0.9167,13.412 C0.8587,13.412 0.8037,13.423 0.7477,13.438 C0.6207,13.462 0.5047,13.525 0.4117,13.618 C0.2877,13.741 0.2187,13.909 0.2187,14.083 C0.2187,14.083 0.2277,21.525 0.2457,21.583 C0.5707,25.335 3.6217,28.268 7.4267,28.43 L24.9617,28.435 L24.9617,37.984 L7.4137,37.993 C7.3707,37.993 7.3287,37.998 7.2877,38.007 C3.5077,38.216 0.4787,41.2 0.2217,45.029 L0.2037,52.3437 L0.2037,52.3457 C0.2037,52.4017 0.2137,52.4557 0.2267,52.5077 C0.2487,52.6427 0.3107,52.7677 0.4087,52.8657 C0.5317,52.9897 0.6997,53.0587 0.8747,53.0587 L7.6307,53.0587 C7.6407,53.0587 7.6527,53.0577 7.6647,53.0577 L7.7197,53.0587 C11.8597,53.0587 15.2267,49.6927 15.2267,45.554 C15.2267,45.407 15.2227,41.45 15.2227,41.45 L24.9617,41.45 L24.9617,51.0917 C24.9617,51.0917 21.0077,51.0867 20.8587,51.0867 C16.7197,51.0867 13.3527,54.4537 13.3527,58.5917 L13.3537,58.6837 L13.3527,65.4387 C13.3527,65.4937 13.3617,65.5477 13.3757,65.5997 C13.3987,65.7357 13.4607,65.8607 13.5567,65.9587 C13.6807,66.0817 13.8477,66.1507 14.0227,66.1507 L21.3387,66.1507 C21.4037,66.1507 21.4647,66.1417 21.5237,66.1227 C25.2767,65.7987 28.2077,62.7467 28.3697,58.9417 L28.3767,41.456 L38.1367,41.451 L38.1367,58.9127 C38.1367,58.9547 38.1407,58.9967 38.1487,59.0377 C38.2667,61.1657 39.2637,63.0547 40.7947,64.3467 C41.9877,65.3597 43.5077,66.0087 45.1907,66.1217 L52.5067,66.1387 L52.5077,66.1387 C52.6817,66.1387 52.8497,66.0687 52.9727,65.9457 C53.0967,65.8227 53.1647,65.6547 53.1647,65.4807 L53.1647,58.7257 C53.1647,58.7137 53.1647,58.7027 53.1637,58.6917 L53.1647,58.6347 C53.1647,56.5557 52.3167,54.6747 50.9477,53.3137 C49.5877,51.9537 47.7117,51.1127 45.6427,51.1127 C45.4957,51.1127 45.3507,51.1177 45.2567,51.1247 L41.5137,51.1167 L41.5137,41.441 L51.2357,41.441 L51.2437,45.084 C51.2347,45.23 51.2297,45.379 51.2297,45.529 C51.2297,47.6067 52.0787,49.4897 53.4487,50.8487 C54.8067,52.2087 56.6837,53.0507 58.7527,53.0507 L58.8447,53.0487 L65.5997,53.0507 C65.7747,53.0507 65.9407,52.9817 66.0647,52.8577 C66.1877,52.7347 66.2577,52.5667 66.2577,52.3917 L66.2577,45.077 C66.2577,45.013 66.2477,44.951 66.2297,44.893 Z" id="Fill-30"></path>
                    <path d="M98.0479,42.221 C100.0029,42.221 101.5509,41.569 102.6099,40.184 C103.6699,38.799 104.1589,36.843 104.1589,34.317 C104.1589,29.265 102.3659,26.658 98.8619,26.658 C96.7439,26.658 94.8699,27.717 93.3209,29.795 L93.3209,39.777 C94.5449,41.406 96.0919,42.221 98.0479,42.221 Z M93.1589,27.31 C95.1149,24.946 97.3959,23.724 100.0849,23.724 C102.5289,23.724 104.4019,24.62 105.7879,26.413 C107.174,28.287 107.907,30.936 107.907,34.317 C107.907,37.413 107.092,39.98 105.5439,41.936 C103.9139,43.973 101.7949,45.032 99.2699,45.032 C96.7439,45.032 94.7879,44.258 93.3209,42.628 L93.3209,48.7402 C93.3629,48.7402 93.7289,48.8212 94.4219,48.9842 C95.1149,49.1462 95.5219,49.2282 95.6029,49.2282 C96.0109,49.3092 96.2549,49.5952 96.2549,50.0022 L96.2549,51.7542 L86.7219,51.7542 L86.7219,50.0022 C86.7219,49.5952 86.9659,49.3092 87.3739,49.2282 L89.6549,48.7802 L89.6549,27.106 C88.3519,26.862 87.6179,26.698 87.3739,26.617 C86.9659,26.535 86.7219,26.25 86.7219,25.843 L86.7219,24.132 L89.6549,24.132 L91.8549,24.132 C92.3429,24.132 92.6699,24.376 92.8329,24.866 L93.1179,27.31 L93.1589,27.31 Z" id="Fill-32"></path>
                    <path d="M127.458,23.806 C129.658,23.806 131.369,24.499 132.591,25.925 C133.772,27.31 134.383,29.265 134.383,31.628 L134.383,41.773 C135.688,42.017 136.461,42.181 136.706,42.262 C137.113,42.343 137.317,42.628 137.317,43.036 L137.317,44.747 L130.757,44.747 L130.757,31.628 C130.757,28.369 129.291,26.699 126.398,26.699 C124.361,26.699 122.569,27.677 120.857,29.591 L120.857,41.814 L121.346,41.895 C122.406,42.099 122.977,42.222 123.139,42.262 C123.547,42.343 123.791,42.628 123.791,43.036 L123.791,44.747 L114.258,44.747 L114.258,43.036 C114.258,42.628 114.502,42.343 114.909,42.262 L117.191,41.814 L117.191,17.736 C115.643,17.492 114.747,17.329 114.502,17.247 C114.094,17.166 113.851,16.881 113.851,16.473 L113.851,14.762 L120.857,14.762 L120.857,26.903 C122.813,24.866 124.973,23.806 127.458,23.806" id="Fill-33"></path>
                    <path d="M165.219,24.091 L165.219,25.843 C165.219,26.25 165.016,26.495 164.608,26.577 C164.486,26.577 164.078,26.698 163.508,26.821 C162.937,26.943 162.571,27.025 162.49,27.025 L152.264,50.8178 C152.019,51.3878 151.531,51.7138 150.96,51.7138 L148.271,51.7138 L152.019,43.525 L144.767,26.984 C143.789,26.821 143.178,26.658 142.934,26.577 C142.526,26.495 142.323,26.25 142.323,25.843 L142.323,24.091 L151.571,24.091 L151.571,25.843 C151.571,26.25 151.367,26.495 150.96,26.577 C150.716,26.658 149.982,26.821 148.678,27.066 L153.282,37.821 C153.526,38.391 153.649,39.044 153.811,39.695 C154.056,38.88 154.301,38.229 154.464,37.821 L158.904,27.066 C157.804,26.821 157.071,26.698 156.663,26.617 C156.256,26.536 156.093,26.25 156.093,25.843 L156.093,24.133 L163.753,24.133 L165.219,24.091 Z" id="Fill-34"></path>
                    <path d="M179.84,42.995 L179.84,44.747 L170.307,44.747 L170.307,42.995 C170.307,42.587 170.551,42.302 170.958,42.221 L173.24,41.772 L173.24,17.695 C171.936,17.451 171.203,17.287 170.958,17.206 C170.551,17.124 170.307,16.88 170.307,16.473 L170.307,14.721 L176.907,14.721 L176.907,41.732 C178.211,41.976 178.944,42.14 179.188,42.221 C179.595,42.302 179.84,42.587 179.84,42.995" id="Fill-35"></path>
                    <path d="M200.208,40.185 C201.186,38.799 201.716,36.885 201.716,34.44 C201.716,31.996 201.186,30.081 200.208,28.695 C199.23,27.31 197.682,26.658 195.645,26.658 C194.585,26.658 193.689,26.821 192.957,27.148 C192.224,27.474 191.572,28.044 191.082,28.695 C190.593,29.348 190.187,30.162 189.941,31.14 C189.697,32.118 189.534,33.259 189.534,34.48 C189.534,35.703 189.697,36.762 189.941,37.74 C190.187,38.717 190.593,39.533 191.082,40.185 C191.572,40.836 192.224,41.325 192.957,41.651 C193.689,41.977 194.585,42.222 195.645,42.222 C197.682,42.222 199.23,41.569 200.208,40.185 M199.719,24.54 C200.941,25.029 202,25.762 202.856,26.658 C203.711,27.554 204.363,28.695 204.812,29.999 C205.26,31.303 205.505,32.769 205.505,34.399 C205.505,36.029 205.26,37.496 204.812,38.799 C204.363,40.103 203.711,41.244 202.856,42.14 C202,43.036 200.941,43.769 199.719,44.259 C198.497,44.747 197.152,44.992 195.645,44.992 C194.139,44.992 192.793,44.747 191.572,44.259 C190.35,43.769 189.289,43.036 188.433,42.14 C187.58,41.244 186.927,40.103 186.438,38.799 C185.948,37.496 185.785,36.029 185.785,34.399 C185.785,32.769 185.948,31.303 186.438,29.999 C186.927,28.695 187.58,27.554 188.433,26.658 C189.289,25.762 190.35,25.029 191.572,24.54 C192.793,24.051 194.139,23.806 195.645,23.806 C197.152,23.806 198.497,24.051 199.719,24.54" id="Fill-36"></path>
                    <path d="M219.84,23.806 C221.266,23.806 223.058,24.173 225.218,24.906 L225.218,26.332 L225.218,30.203 L223.629,30.203 C223.221,30.203 223.018,30.039 222.936,29.633 C222.936,29.551 222.855,28.655 222.692,26.943 C221.469,26.658 220.41,26.495 219.514,26.495 L219.473,26.495 C218.333,26.495 217.396,26.821 216.662,27.391 C215.929,27.962 215.562,28.573 215.562,29.265 C215.562,29.958 215.726,30.488 216.051,30.814 C216.622,31.465 217.396,31.913 218.414,32.24 C219.432,32.566 220.288,32.769 220.941,33.014 L222.896,33.747 C223.548,33.992 224.118,34.399 224.607,34.806 C225.748,35.703 226.277,36.885 226.277,38.391 C226.277,40.348 225.625,41.936 224.281,43.118 C222.896,44.34 221.021,45.033 218.821,45.033 C216.622,45.033 214.34,44.665 212.14,43.932 L212.14,38.555 L213.607,38.555 C213.932,38.555 214.137,38.717 214.217,39.044 C214.217,39.165 214.299,40.021 214.463,41.651 C215.603,42.222 217.029,42.466 218.659,42.466 C220.003,42.466 221.062,42.099 221.837,41.447 C222.529,40.836 222.896,40.143 222.896,39.369 C222.896,38.596 222.733,38.025 222.407,37.658 C222.08,37.292 221.673,36.925 221.184,36.68 C220.695,36.436 220.125,36.192 219.473,36.029 C217.681,35.458 216.418,35.051 215.684,34.725 C214.951,34.399 214.34,33.992 213.851,33.584 C212.711,32.647 212.14,31.385 212.14,29.755 C212.14,28.084 212.792,26.74 214.095,25.599 C215.481,24.376 217.355,23.806 219.881,23.806 L219.84,23.806 Z" id="Fill-37"></path>
                </g>
            </g>
        </g>
    </g>
</svg>